<svg width="28" height="28" viewBox="0 0 28 28" fill="none" xmlns="http://www.w3.org/2000/svg">
<g clip-path="url(#clip0_1_2544)">
<path d="M9.33334 10.5H18.6667" stroke="#9198A0" stroke-width="2" stroke-linecap="round" stroke-linejoin="round"/>
<path d="M9.33334 15.1667H16.3333" stroke="#9198A0" stroke-width="2" stroke-linecap="round" stroke-linejoin="round"/>
<path d="M21 4.66667C21.9283 4.66667 22.8185 5.03542 23.4749 5.69179C24.1313 6.34817 24.5 7.23841 24.5 8.16667V17.5C24.5 18.4283 24.1313 19.3185 23.4749 19.9749C22.8185 20.6313 21.9283 21 21 21H15.1667L9.33333 24.5V21H7C6.07174 21 5.1815 20.6313 4.52513 19.9749C3.86875 19.3185 3.5 18.4283 3.5 17.5V8.16667C3.5 7.23841 3.86875 6.34817 4.52513 5.69179C5.1815 5.03542 6.07174 4.66667 7 4.66667H21Z" stroke="#9198A0" stroke-width="2" stroke-linecap="round" stroke-linejoin="round"/>
</g>
<defs>
<clipPath id="clip0_1_2544">
<rect width="28" height="28" fill="white"/>
</clipPath>
</defs>
</svg>
