<svg width="28" height="28" viewBox="0 0 28 28" fill="none" xmlns="http://www.w3.org/2000/svg">
<g clip-path="url(#clip0_1_2554)">
<path d="M23.1875 7.315C23.5885 7.54304 23.9214 7.8738 24.1521 8.27325C24.3828 8.6727 24.5029 9.1264 24.5 9.58767V18.0857C24.5 19.0295 23.9832 19.8998 23.149 20.3583L15.274 25.34C14.8836 25.5544 14.4454 25.6667 14 25.6667C13.5546 25.6667 13.1164 25.5544 12.726 25.34L4.851 20.3583C4.44286 20.1353 4.10214 19.8067 3.86448 19.4069C3.62682 19.0071 3.50093 18.5508 3.5 18.0857V9.5865C3.5 8.64267 4.01683 7.7735 4.851 7.315L12.726 2.67167C13.128 2.45004 13.5795 2.33381 14.0385 2.33381C14.4975 2.33381 14.949 2.45004 15.351 2.67167L23.226 7.315H23.1875Z" stroke="#9198A0" stroke-width="2" stroke-linecap="round" stroke-linejoin="round"/>
<path d="M10.5 14C10.5 14.9283 10.8687 15.8185 11.5251 16.4749C12.1815 17.1313 13.0717 17.5 14 17.5C14.9283 17.5 15.8185 17.1313 16.4749 16.4749C17.1313 15.8185 17.5 14.9283 17.5 14C17.5 13.0717 17.1313 12.1815 16.4749 11.5251C15.8185 10.8687 14.9283 10.5 14 10.5C13.0717 10.5 12.1815 10.8687 11.5251 11.5251C10.8687 12.1815 10.5 13.0717 10.5 14Z" stroke="#9198A0" stroke-width="2" stroke-linecap="round" stroke-linejoin="round"/>
</g>
<defs>
<clipPath id="clip0_1_2554">
<rect width="28" height="28" fill="white"/>
</clipPath>
</defs>
</svg>
