<svg width="24" height="18" viewBox="0 0 24 18" fill="none" xmlns="http://www.w3.org/2000/svg">
<path d="M1 2.13714C1 1.50857 1.4906 1 2.0945 1H10.9055C11.1958 1 11.4742 1.11981 11.6794 1.33306C11.8847 1.54632 12 1.83555 12 2.13714C12 2.43873 11.8847 2.72797 11.6794 2.94122C11.4742 3.15448 11.1958 3.27429 10.9055 3.27429H2.0945C1.80422 3.27429 1.52583 3.15448 1.32057 2.94122C1.11531 2.72797 1 2.43873 1 2.13714ZM1 9C1 8.37143 1.4906 7.86286 2.0945 7.86286H21.9055C22.1958 7.86286 22.4742 7.98266 22.6794 8.19592C22.8847 8.40917 23 8.69841 23 9C23 9.30159 22.8847 9.59083 22.6794 9.80408C22.4742 10.0173 22.1958 10.1371 21.9055 10.1371H2.0945C1.80422 10.1371 1.52583 10.0173 1.32057 9.80408C1.11531 9.59083 1 9.30159 1 9ZM2.0945 14.7257C1.80422 14.7257 1.52583 14.8455 1.32057 15.0588C1.11531 15.272 1 15.5613 1 15.8629C1 16.1644 1.11531 16.4537 1.32057 16.6669C1.52583 16.8802 1.80422 17 2.0945 17H15.3055C15.5958 17 15.8742 16.8802 16.0794 16.6669C16.2847 16.4537 16.4 16.1644 16.4 15.8629C16.4 15.5613 16.2847 15.272 16.0794 15.0588C15.8742 14.8455 15.5958 14.7257 15.3055 14.7257H2.0945Z" fill="white" stroke="white" stroke-width="0.8"/>
</svg>
